<svg width="22" height="29" viewBox="0 0 22 29" fill="none" xmlns="http://www.w3.org/2000/svg">
<g opacity="0.85">
<path d="M10.6199 20.0015C15.867 20.0015 20.1206 15.7478 20.1206 10.5007C20.1206 5.25362 15.867 1 10.6199 1C5.37276 1 1.11914 5.25362 1.11914 10.5007C1.11914 15.7478 5.37276 20.0015 10.6199 20.0015Z" stroke="white" stroke-width="2" stroke-linecap="round" stroke-linejoin="round"/>
<path d="M10.6188 15.3801C13.3983 15.3801 15.6516 13.1268 15.6516 10.3473C15.6516 7.56772 13.3983 5.31445 10.6188 5.31445C7.83921 5.31445 5.58594 7.56772 5.58594 10.3473C5.58594 13.1268 7.83921 15.3801 10.6188 15.3801Z" stroke="white" stroke-width="2" stroke-linecap="round" stroke-linejoin="round"/>
<path d="M16.3208 18.1016V27.6023L10.6204 24.7521L4.91992 27.6023V18.1016" stroke="white" stroke-width="2" stroke-linecap="round" stroke-linejoin="round"/>
</g>
</svg>
