<svg width="30" height="20" viewBox="0 0 30 20" fill="none" xmlns="http://www.w3.org/2000/svg">
<g opacity="0.85">
<path d="M10.4018 14.2019C13.8813 14.2019 16.7019 11.3813 16.7019 7.90175C16.7019 4.42225 13.8813 1.60156 10.4018 1.60156C6.92225 1.60156 4.10156 4.42225 4.10156 7.90175C4.10156 11.3813 6.92225 14.2019 10.4018 14.2019Z" stroke="white" stroke-width="2" stroke-linecap="round" stroke-linejoin="round"/>
<path d="M18.5703 1.83176C19.1272 1.68071 19.7016 1.60332 20.2786 1.60156C21.9495 1.60156 23.552 2.26533 24.7335 3.44685C25.9151 4.62836 26.5788 6.23084 26.5788 7.90175C26.5788 9.57267 25.9151 11.1751 24.7335 12.3567C23.552 13.5382 21.9495 14.2019 20.2786 14.2019" stroke="white" stroke-width="2" stroke-linecap="round" stroke-linejoin="round"/>
<path d="M1.67969 18.7329C2.66342 17.333 3.96961 16.1904 5.48792 15.4017C7.00623 14.6129 8.69206 14.2012 10.403 14.2012C12.114 14.2012 13.7998 14.6129 15.3181 15.4017C16.8364 16.1904 18.1426 17.333 19.1264 18.7329" stroke="white" stroke-width="2" stroke-linecap="round" stroke-linejoin="round"/>
<path d="M20.2773 14.2012C21.9885 14.2001 23.6746 14.6114 25.1931 15.4001C26.7116 16.1889 28.0176 17.3319 29.0007 18.7325" stroke="white" stroke-width="2" stroke-linecap="round" stroke-linejoin="round"/>
</g>
</svg>
