<svg width="24" height="24" viewBox="0 0 24 24" fill="none" xmlns="http://www.w3.org/2000/svg">
<g opacity="0.45">
<path d="M12 23.001C18.0751 23.001 23 18.0761 23 12.001C23 5.92584 18.0751 1.00098 12 1.00098C5.92487 1.00098 1 5.92584 1 12.001C1 18.0761 5.92487 23.001 12 23.001Z" stroke="white" stroke-width="2" stroke-linecap="round" stroke-linejoin="round"/>
<path d="M12 19.335C12.7594 19.335 13.375 18.7194 13.375 17.96C13.375 17.2006 12.7594 16.585 12 16.585C11.2406 16.585 10.625 17.2006 10.625 17.96C10.625 18.7194 11.2406 19.335 12 19.335Z" fill="white"/>
<path d="M11.9993 13.8343V12.9176C12.6339 12.9176 13.2542 12.7295 13.7818 12.3769C14.3094 12.0244 14.7206 11.5233 14.9635 10.9371C15.2063 10.3508 15.2698 9.70575 15.146 9.0834C15.0222 8.46104 14.7167 7.88937 14.268 7.44068C13.8193 6.99198 13.2476 6.68642 12.6253 6.56263C12.0029 6.43883 11.3578 6.50237 10.7716 6.7452C10.1853 6.98803 9.68425 7.39925 9.33172 7.92686C8.97918 8.45446 8.79102 9.07476 8.79102 9.70931" stroke="white" stroke-width="2" stroke-linecap="round" stroke-linejoin="round"/>
</g>
</svg>
