<svg width="23" height="24" viewBox="0 0 23 24" fill="none" xmlns="http://www.w3.org/2000/svg">
<path opacity="0.85" d="M21.6898 10.4949L12.1443 2.06926C11.9684 1.91289 11.7385 1.82617 11.5 1.82617C11.2615 1.82617 11.0316 1.91289 10.8557 2.06926L1.31023 10.4949C1.21417 10.583 1.13724 10.6889 1.08396 10.8063C1.03069 10.9237 1.00214 11.0503 1 11.1787V21.899C1 22.1449 1.10057 22.3807 1.27958 22.5546C1.45859 22.7285 1.70138 22.8262 1.95455 22.8262H21.0455C21.2986 22.8262 21.5414 22.7285 21.7204 22.5546C21.8994 22.3807 22 22.1449 22 21.899V11.1787C21.9979 11.0503 21.9693 10.9237 21.916 10.8063C21.8628 10.6889 21.7858 10.583 21.6898 10.4949V10.4949Z" stroke="white" stroke-width="2" stroke-linecap="round" stroke-linejoin="round"/>
</svg>
