<svg width="25" height="23" viewBox="0 0 25 23" fill="none" xmlns="http://www.w3.org/2000/svg">
<g opacity="0.85">
<path d="M22.2884 4.86426H2.39263C1.89317 4.86426 1.48828 5.26915 1.48828 5.76861V20.2382C1.48828 20.7377 1.89317 21.1426 2.39263 21.1426H22.2884C22.7878 21.1426 23.1927 20.7377 23.1927 20.2382V5.76861C23.1927 5.26915 22.7878 4.86426 22.2884 4.86426Z" stroke="white" stroke-width="2" stroke-linecap="round" stroke-linejoin="round"/>
<path d="M16.8638 4.86447V3.05577C16.8638 2.57607 16.6733 2.11602 16.3341 1.77683C15.9949 1.43763 15.5348 1.24707 15.0551 1.24707H9.62901C9.14932 1.24707 8.68927 1.43763 8.35007 1.77683C8.01087 2.11602 7.82031 2.57607 7.82031 3.05577V4.86447" stroke="white" stroke-width="2" stroke-linecap="round" stroke-linejoin="round"/>
<path d="M23.1927 11.0029C19.8944 12.9105 16.1507 13.9127 12.3405 13.9082C8.52961 13.9181 4.7845 12.9155 1.48828 11.0029" stroke="white" stroke-width="2" stroke-linecap="round" stroke-linejoin="round"/>
<path d="M10.9844 10.29H13.6974" stroke="white" stroke-width="2" stroke-linecap="round" stroke-linejoin="round"/>
</g>
</svg>
