<svg id="Layer_1" data-name="Layer 1" xmlns="http://www.w3.org/2000/svg" viewBox="0 0 500 500"><defs><style>.cls-1,.cls-2,.cls-3,.cls-4,.cls-5,.cls-6{fill:none;stroke-width:30.12px;}.cls-1,.cls-4{stroke:#000;}.cls-1{stroke-linecap:round;stroke-linejoin:round;}.cls-2{stroke:#edc34c;}.cls-2,.cls-3,.cls-4,.cls-5,.cls-6{stroke-miterlimit:10;}.cls-3{stroke:#e89b3f;}.cls-5{stroke:#e5d833;}.cls-6{stroke:#e5f23b;}</style></defs><path class="cls-1" d="M325.54,114.77,265,182a25.49,25.49,0,0,1-37.88,0l-60.52-67.18"/><path class="cls-2" d="M339,274.46a90.93,90.93,0,0,1-4.5,53.72"/><path class="cls-3" d="M279,380.49a91.93,91.93,0,0,0,55.49-52.31"/><path class="cls-4" d="M185.56,358.54A91.14,91.14,0,0,0,279,380.49"/><path class="cls-4" d="M280.61,208.28a91.12,91.12,0,0,0-95,150.26"/><path class="cls-5" d="M320.64,236.68A90.63,90.63,0,0,1,339,274.46"/><path class="cls-6" d="M294.33,214.54q1.71,1,3.36,2a91.81,91.81,0,0,1,18.67,15.27c1.48,1.57,2.9,3.21,4.28,4.89"/><path class="cls-4" d="M280.61,208.28a93.06,93.06,0,0,1,13.73,6.26"/></svg>