<?xml version="1.0" encoding="iso-8859-1"?>
<!-- Generator: Adobe Illustrator 19.0.0, SVG Export Plug-In . SVG Version: 6.00 Build 0)  -->
<svg version="1.1" id="Layer_1" xmlns="http://www.w3.org/2000/svg" x="0px" y="0px"
	 viewBox="0 0 496 496" style="enable-background:new 0 0 496 496;" xml:space="preserve">
<g>
	<polygon style="fill:#029B40;" points="290.4,394.4 480,68.8 480,0 254.4,326.4 	"/>
	<polygon style="fill:#029B40;" points="205.6,394.4 16,68.8 16,0 241.6,326.4 	"/>
</g>
<g>
	<polygon style="fill:#007730;" points="476,0 364,168 422.4,168 480,68.8 480,0 	"/>
	<polygon style="fill:#007730;" points="20.8,0.8 16.8,0.8 16.8,69.6 73.6,168 132,168 	"/>
</g>
<circle style="fill:#C9C9C9;" cx="248" cy="373.6" r="122.4"/>
<path style="fill:#AAAAAA;" d="M161.6,286.4c48-48,125.6-48,173.6,0s48,125.6,0,173.6"/>
<circle style="fill:#D6D6D6;" cx="248" cy="373.6" r="92.8"/>
<path style="fill:#C9C9C9;" d="M182.4,308c36-36,95.2-36,131.2,0s36,95.2,0,131.2"/>
<rect x="16" style="fill:#5FED98;" width="464" height="72"/>
<g>
	<polygon style="fill:#51D687;" points="480,72 19.2,72 180.8,44.8 480,0 	"/>
	<polygon style="fill:#51D687;" points="190.4,316.8 208,345.6 196.8,364 180.8,348.8 	"/>
</g>
<polyline style="fill:#2CAF61;" points="196.8,364 180.8,348.8 190.4,316.8 "/>
<polygon style="fill:#51D687;" points="170.4,352.8 196.8,374.4 192,395.2 172,386.4 "/>
<polyline style="fill:#2CAF61;" points="192,395.2 172,386.4 170.4,352.8 "/>
<polygon style="fill:#51D687;" points="172.8,396 204.8,406.4 208,427.2 186.4,426.4 "/>
<polyline style="fill:#2CAF61;" points="208,427.2 186.4,426.4 172.8,396 "/>
<polygon style="fill:#51D687;" points="194.4,436 220.8,431.2 231.2,444.8 216,452 "/>
<polyline style="fill:#2CAF61;" points="231.2,444.8 216,452 194.4,436 "/>
<polygon style="fill:#51D687;" points="217.6,296.8 220.8,320.8 208,329.6 201.6,315.2 "/>
<polyline style="fill:#2CAF61;" points="208,329.6 201.6,315.2 217.6,296.8 "/>
<polygon style="fill:#51D687;" points="305.6,316.8 288,345.6 299.2,364 315.2,348.8 "/>
<polyline style="fill:#2CAF61;" points="299.2,364 315.2,348.8 305.6,316.8 "/>
<polygon style="fill:#51D687;" points="325.6,352.8 299.2,374.4 304,395.2 324,386.4 "/>
<polyline style="fill:#2CAF61;" points="304,395.2 324,386.4 325.6,352.8 "/>
<polygon style="fill:#51D687;" points="323.2,396 291.2,406.4 288,427.2 309.6,426.4 "/>
<polyline style="fill:#2CAF61;" points="288,427.2 309.6,426.4 323.2,396 "/>
<polygon style="fill:#51D687;" points="301.6,436 275.2,431.2 264.8,444.8 280,452 "/>
<polyline style="fill:#2CAF61;" points="264.8,444.8 280,452 301.6,436 "/>
<polygon style="fill:#51D687;" points="278.4,296.8 275.2,320.8 288,329.6 294.4,315.2 "/>
<polyline style="fill:#2CAF61;" points="288,329.6 294.4,315.2 278.4,296.8 "/>
<rect x="16" y="8" style="fill:#8258BC;" width="464" height="8"/>
<rect x="184" y="8" style="fill:#5A347F;" width="296" height="8"/>
<rect x="16" y="32" style="fill:#8258BC;" width="464" height="8"/>
<rect x="184" y="32" style="fill:#5A347F;" width="296" height="8"/>
<rect x="16" y="56" style="fill:#8258BC;" width="464" height="8"/>
<rect x="184" y="56" style="fill:#5A347F;" width="296" height="8"/>
<g>
</g>
<g>
</g>
<g>
</g>
<g>
</g>
<g>
</g>
<g>
</g>
<g>
</g>
<g>
</g>
<g>
</g>
<g>
</g>
<g>
</g>
<g>
</g>
<g>
</g>
<g>
</g>
<g>
</g>
</svg>
