<svg width="244" height="35" viewBox="0 0 244 35" fill="none" xmlns="http://www.w3.org/2000/svg">
<path d="M206.371 9.97266H206.37C205.288 9.97266 204.253 9.51164 203.528 8.7073L197.822 2.37159C197.296 1.78883 197.343 0.891153 197.926 0.366018C198.508 -0.16074 199.408 -0.112041 199.931 0.470721L205.639 6.80724C205.894 7.08969 206.207 7.1319 206.37 7.1319H206.371C206.534 7.1319 206.846 7.08969 207.102 6.80643L212.809 0.470721C213.333 -0.112041 214.232 -0.159927 214.814 0.365207C215.398 0.891153 215.445 1.78883 214.92 2.37159L209.213 8.7073C208.488 9.51245 207.452 9.97266 206.371 9.97266Z" fill="#101010"/>
<path d="M216.025 22.083L213.394 21.0133C213.74 20.1627 213.915 19.2609 213.915 18.3356C213.915 17.8129 213.859 17.2935 213.747 16.7895L216.519 16.1742C216.677 16.8795 216.755 17.6068 216.755 18.3356C216.755 19.631 216.51 20.8907 216.025 22.083Z" fill="#EDC34C"/>
<path d="M209.93 27.8281L209.021 25.1367C210.133 24.7617 211.15 24.1051 211.963 23.2407C212.578 22.5865 213.059 21.8374 213.394 21.0135L216.025 22.0825C215.559 23.2318 214.888 24.2756 214.033 25.1862C212.901 26.3907 211.482 27.3038 209.93 27.8281Z" fill="#E89B3F"/>
<path d="M213.748 16.7871C213.663 16.4008 213.544 16.0201 213.395 15.6541C213.125 14.9901 212.758 14.3725 212.305 13.8157L214.505 12.0195C215.139 12.7962 215.651 13.659 216.026 14.5835C216.235 15.0965 216.403 15.6313 216.522 16.1735L213.748 16.7871Z" fill="#E5D833"/>
<path d="M212.305 13.8193C212.195 13.6862 212.083 13.5572 211.965 13.4306C211.527 12.9639 211.032 12.5589 210.493 12.2269C210.404 12.1725 210.316 12.1198 210.226 12.0694L211.619 9.5931C211.744 9.6629 211.866 9.73595 211.985 9.81062C212.736 10.2733 213.427 10.8365 214.035 11.4859C214.196 11.6563 214.351 11.8349 214.502 12.0183L212.305 13.8193Z" fill="#E5F23B"/>
<path d="M210.106 8.90241C209.024 8.51526 207.891 8.31884 206.74 8.31884C201.218 8.31884 196.726 12.8113 196.726 18.3345C196.726 21.0097 197.768 23.5242 199.66 25.4153L199.659 25.4162C201.55 27.3073 204.065 28.3486 206.74 28.3486C207.835 28.3486 208.908 28.1725 209.932 27.8259L209.02 25.1361C208.292 25.3829 207.524 25.5079 206.74 25.5079C204.823 25.5079 203.022 24.762 201.668 23.4073V23.4065C200.313 22.0511 199.566 20.25 199.566 18.3345C199.566 14.3786 202.784 11.1596 206.74 11.1596C207.563 11.1596 208.373 11.3 209.146 11.576C209.518 11.7099 209.882 11.8755 210.228 12.0695L211.615 9.59069C211.134 9.32122 210.627 9.08909 210.109 8.90322" fill="#101010"/>
<path d="M0 28.4131V8.76801H3.15974L10.7746 17.6791L18.43 8.76801H21.5484V28.4131H18.43V13.1834L11.3817 21.4053H10.1261L3.11915 13.1834V28.4131H0Z" fill="#101010"/>
<path d="M38.3173 16.8259H50.9547C50.8735 15.3957 50.3273 14.0922 49.3143 12.917C48.3014 11.7433 46.8096 11.1549 44.8381 11.1549C42.9478 11.1549 41.4162 11.7165 40.2409 12.8366C39.0665 13.9575 38.4245 15.287 38.3173 16.8259ZM45.8105 28.8975C42.7587 28.8975 40.1939 27.9316 38.1144 26.0007C36.035 24.0706 34.9961 21.6056 34.9961 18.6082C34.9961 15.6376 35.9206 13.1743 37.7703 11.2166C39.6192 9.25888 42.0298 8.27922 45.0004 8.27922C46.5393 8.27922 47.9232 8.59739 49.1528 9.23129C50.3808 9.8668 51.3459 10.6963 52.0488 11.7222C52.75 12.749 53.2841 13.8431 53.6485 15.0037C54.013 16.1644 54.1948 17.3396 54.1948 18.5279V19.4191H38.2768C38.4927 21.4441 39.336 23.0504 40.8083 24.2386C42.2798 25.4277 44.1636 26.021 46.4582 26.021C48.7267 26.021 50.8329 25.4139 52.7776 24.198V27.0331C51.13 28.2757 48.8079 28.8975 45.8105 28.8975Z" fill="#101010"/>
<path d="M71.1667 25.617H82.5078V11.5609H73.8808C73.8808 17.9348 72.975 22.6196 71.1667 25.617ZM65.1719 34.123V25.617H67.6425C68.8308 24.0237 69.6741 21.9305 70.174 19.3389C70.6732 16.7465 70.9232 13.2224 70.9232 8.76642H85.7081V25.617H89.3127V34.123H86.2341V28.4115H68.2496V34.123H65.1719Z" fill="#101010"/>
<path d="M108.795 26.0218C110.172 26.0218 111.448 25.7247 112.623 25.1306C113.797 24.5365 114.722 23.8068 115.398 22.9432V20.2697C113.561 19.0546 111.509 18.4467 109.24 18.4467C107.512 18.4467 106.155 18.7779 105.17 19.4394C104.184 20.1017 103.691 21.0261 103.691 22.2144C103.691 23.4838 104.177 24.4358 105.15 25.0689C106.121 25.7044 107.336 26.0218 108.795 26.0218ZM107.904 28.8975C105.824 28.8975 104.062 28.3163 102.618 27.1557C101.173 25.995 100.451 24.4009 100.451 22.3759C100.451 20.35 101.213 18.7649 102.739 17.6172C104.265 16.4695 106.176 15.8949 108.471 15.8949C111.145 15.8949 113.453 16.5028 115.398 17.7179V15.9355C115.398 12.7498 113.291 11.1557 109.078 11.1557C106.784 11.1557 104.65 11.8042 102.678 13.1004V10.0624C104.65 8.87497 107.013 8.28004 109.767 8.28004C112.413 8.28004 114.547 8.90176 116.167 10.1436C117.787 11.3862 118.597 13.2083 118.597 15.6116V23.3474C118.597 25.0494 119.205 25.9001 120.42 25.9001C120.906 25.9001 121.284 25.8051 121.554 25.6168V28.128C121.069 28.4519 120.38 28.6142 119.488 28.6142C117.409 28.6142 116.153 27.5883 115.721 25.5356C113.723 27.7766 111.117 28.8975 107.904 28.8975Z" fill="#101010"/>
<path d="M131.8 28.4116V25.4953C131.935 25.5497 132.205 25.5765 132.61 25.5765C133.42 25.5765 134.115 25.3127 134.697 24.7859C135.276 24.26 135.715 23.4971 136.012 22.4979C136.309 21.4988 136.532 20.412 136.681 19.2367C136.829 18.0623 136.917 16.6792 136.944 15.0852L137.106 8.76649H152.012V28.4116H148.812V11.561H140.185L140.063 15.1663C140.036 16.3814 139.982 17.4341 139.901 18.3252C139.82 19.2172 139.691 20.2229 139.516 21.3438C139.34 22.4646 139.084 23.4094 138.747 24.1788C138.409 24.9475 137.983 25.6771 137.471 26.3662C136.958 27.0545 136.302 27.5748 135.506 27.9254C134.71 28.276 133.798 28.4521 132.772 28.4521C132.34 28.4521 132.016 28.4384 131.8 28.4116Z" fill="#101010"/>
<path d="M166.879 28.4131V8.76801H170.119V23.7137L182.271 8.76801H185.268V28.4131H182.027V13.5072L169.876 28.4131H166.879Z" fill="#101010"/>
<path d="M233.793 28.4131V11.5625H226.785V8.76801H244V11.5625H236.993V28.4131H233.793Z" fill="#101010"/>
</svg>
