<svg id="Layer_1" data-name="Layer 1" xmlns="http://www.w3.org/2000/svg" viewBox="0 0 1057.36 224.05"><defs><style>.cls-1{fill:#f2f2f2;}.cls-2{fill:#edc34c;}.cls-3{fill:#e89b3f;}.cls-4{fill:#e5d833;}.cls-5{fill:#e5f23b;}</style></defs><rect class="cls-1" y="0.61" width="1057.36" height="224.05"/><path d="M842.74,86.24h0a14.25,14.25,0,0,1-10.57-4.71L810.91,58a5.29,5.29,0,0,1,7.86-7.08L840,74.46a3.65,3.65,0,0,0,2.72,1.21h0a3.63,3.63,0,0,0,2.72-1.22L866.7,50.87A5.29,5.29,0,0,1,874.56,58L853.32,81.53A14.25,14.25,0,0,1,842.74,86.24Z"/><path class="cls-2" d="M878.67,131.32l-9.79-4a26.61,26.61,0,0,0,1.31-15.73l10.32-2.29a37.18,37.18,0,0,1-1.84,22Z"/><path class="cls-3" d="M856,152.7l-3.39-10a27,27,0,0,0,16.28-15.34l9.79,4A37.51,37.51,0,0,1,856,152.7Z"/><path class="cls-4" d="M870.19,111.61a26.44,26.44,0,0,0-5.37-11.06L873,93.86a37.51,37.51,0,0,1,5.66,9.55,36.94,36.94,0,0,1,1.85,5.92Z"/><path class="cls-5" d="M864.82,100.56c-.4-.5-.82-1-1.26-1.45a27.33,27.33,0,0,0-5.48-4.48c-.33-.2-.66-.4-1-.59l5.19-9.21c.46.26.92.53,1.36.81a37.09,37.09,0,0,1,7.63,6.23c.6.64,1.18,1.3,1.74,2Z"/><path d="M856.64,82.26a37.28,37.28,0,0,0-38.89,61.47h0a37.24,37.24,0,0,0,38.24,9l-3.39-10a26.73,26.73,0,0,1-27.37-6.44h0a26.7,26.7,0,0,1,27.84-44h0a27.59,27.59,0,0,1,4,1.84l5.16-9.23a38.84,38.84,0,0,0-5.61-2.56"/><polygon points="74.56 154.88 74.56 81.76 86.32 81.76 114.67 114.92 143.16 81.76 154.77 81.76 154.77 154.88 143.16 154.88 143.16 98.19 116.93 128.8 112.25 128.8 86.17 98.19 86.17 154.88 74.56 154.88"/><path d="M245.08,156.69q-17,0-28.65-10.78t-11.6-27.52q0-16.59,10.32-27.51t26.91-10.94a33.25,33.25,0,0,1,15.46,3.55,28.75,28.75,0,0,1,10.78,9.27,46.08,46.08,0,0,1,6,12.21,43.84,43.84,0,0,1,2,13.12v3.32H217q1.2,11.31,9.42,17.94t21,6.63A43.54,43.54,0,0,0,271,139.2v10.55q-9.19,6.94-25.93,6.94m-27.89-44.93h47a23.9,23.9,0,0,0-6.11-14.55q-5.66-6.55-16.66-6.56-10.56,0-17.11,6.26a22.09,22.09,0,0,0-7.16,14.85"/><path d="M317.15,176.14V144.48h9.2q6.63-8.89,9.42-23.37t2.79-39.36h55v62.73H407v31.66H395.55V154.88H328.61v21.26Zm22.32-31.66h42.21V92.16H349.57q0,35.58-10.1,52.32"/><path d="M476.21,156.69q-11.61,0-19.67-6.48t-8.07-17.8q0-11.31,8.52-17.71t21.33-6.41q14.94,0,25.79,6.79v-6.64q0-17.79-23.53-17.79a42.5,42.5,0,0,0-23.82,7.24V86.58q11-6.63,26.39-6.63,14.78,0,23.82,6.93t9,20.36V136q0,9.51,6.78,9.5a7.29,7.29,0,0,0,4.22-1.05v9.35c-1.8,1.2-4.37,1.81-7.69,1.81q-11.61,0-14-11.46-11.16,12.51-29.1,12.51m3.32-10.7a31.13,31.13,0,0,0,14.25-3.32,30.16,30.16,0,0,0,10.33-8.14v-10a40.67,40.67,0,0,0-22.92-6.78q-9.65,0-15.15,3.69a11.77,11.77,0,0,0-5.51,10.33q0,7.09,5.43,10.63T479.53,146"/><path d="M565.17,154.88V144a9.65,9.65,0,0,0,3,.3,11.13,11.13,0,0,0,7.77-3,18.16,18.16,0,0,0,4.9-8.51,77.66,77.66,0,0,0,2.49-12.14,145.37,145.37,0,0,0,1-15.45l.61-23.52H640.4v73.12H628.49V92.16H596.38l-.46,13.42q-.15,6.78-.6,11.76t-1.43,11.23A43.32,43.32,0,0,1,591,139.13a41.47,41.47,0,0,1-4.75,8.14,17.94,17.94,0,0,1-7.31,5.8,24.94,24.94,0,0,1-10.17,2,31.78,31.78,0,0,1-3.62-.15"/><polygon points="695.73 154.88 695.73 81.76 707.79 81.76 707.79 137.39 753.03 81.76 764.19 81.76 764.19 154.88 752.12 154.88 752.12 99.4 706.89 154.88 695.73 154.88"/><polygon points="944.81 154.88 944.81 92.16 918.73 92.16 918.73 81.76 982.8 81.76 982.8 92.16 956.72 92.16 956.72 154.88 944.81 154.88"/></svg>