<svg width="17" height="24" viewBox="0 0 17 24" fill="none" xmlns="http://www.w3.org/2000/svg">
<path d="M8.51184 16.7024C12.6476 16.7024 16.0002 13.3497 16.0002 9.21399C16.0002 5.07826 12.6476 1.72559 8.51184 1.72559C4.37611 1.72559 1.02344 5.07826 1.02344 9.21399C1.02344 13.3497 4.37611 16.7024 8.51184 16.7024Z" stroke="#101010" stroke-width="1.92559" stroke-linecap="round" stroke-linejoin="round"/>
<path d="M8.51175 13.0577C10.7026 13.0577 12.4786 11.2817 12.4786 9.09086C12.4786 6.90003 10.7026 5.12402 8.51175 5.12402C6.32093 5.12402 4.54492 6.90003 4.54492 9.09086C4.54492 11.2817 6.32093 13.0577 8.51175 13.0577Z" stroke="#101010" stroke-width="1.92559" stroke-linecap="round" stroke-linejoin="round"/>
<path d="M13.0056 15.2051V22.6935L8.51258 20.447L4.01953 22.6935V15.2051" stroke="#101010" stroke-width="1.92559" stroke-linecap="round" stroke-linejoin="round"/>
</svg>
