<?xml version="1.0" encoding="UTF-8" standalone="no"?>
<!-- Created with Inkscape (http://www.inkscape.org/) -->

<svg
   width="280"
   height="50"
   viewBox="0 0 74.083332 13.229167"
   version="1.1"
   id="svg5"
   inkscape:version="1.2.1 (9c6d41e410, 2022-07-14)"
   sodipodi:docname="Logo.svg"
   xml:space="preserve"
   xmlns:inkscape="http://www.inkscape.org/namespaces/inkscape"
   xmlns:sodipodi="http://sodipodi.sourceforge.net/DTD/sodipodi-0.dtd"
   xmlns="http://www.w3.org/2000/svg"
   xmlns:svg="http://www.w3.org/2000/svg"><sodipodi:namedview
     id="namedview7"
     pagecolor="#ffffff"
     bordercolor="#000000"
     borderopacity="0.25"
     inkscape:showpageshadow="2"
     inkscape:pageopacity="0.0"
     inkscape:pagecheckerboard="false"
     inkscape:deskcolor="#d1d1d1"
     inkscape:document-units="mm"
     showgrid="false"
     inkscape:zoom="3.5420314"
     inkscape:cx="109.54166"
     inkscape:cy="25.691472"
     inkscape:window-width="2003"
     inkscape:window-height="1226"
     inkscape:window-x="3173"
     inkscape:window-y="86"
     inkscape:window-maximized="0"
     inkscape:current-layer="layer1" /><defs
     id="defs2"><rect
       x="112.08257"
       y="4.7995057"
       width="81.309273"
       height="22.021261"
       id="rect1688" /><rect
       x="7.9050684"
       y="4.7995057"
       width="118.2937"
       height="23.150557"
       id="rect798" /><rect
       x="5.6464772"
       y="4.7995057"
       width="103.04821"
       height="21.738937"
       id="rect114" /><rect
       x="3.6702101"
       y="3.3878863"
       width="99.660324"
       height="20.044994"
       id="rect113" /></defs><g
     inkscape:label="Слой 1"
     inkscape:groupmode="layer"
     id="layer1"><text
       xml:space="preserve"
       transform="scale(0.26458333)"
       id="text111"
       style="white-space:pre;shape-inside:url(#rect113);display:inline;fill:#000000" /><text
       xml:space="preserve"
       style="font-style:italic;font-variant:normal;font-weight:normal;font-stretch:normal;font-size:3.175px;font-family:sans-serif;-inkscape-font-specification:'sans-serif Italic';fill:#000000;stroke-width:0.264583"
       x="4.1084003"
       y="2.9879277"
       id="text119"><tspan
         sodipodi:role="line"
         id="tspan117"
         style="font-style:italic;font-variant:normal;font-weight:normal;font-stretch:normal;font-family:sans-serif;-inkscape-font-specification:'sans-serif Italic';stroke-width:0.264583"
         x="4.1084003"
         y="2.9879277" /></text><text
       xml:space="preserve"
       transform="scale(0.26458333)"
       id="text112"
       style="font-style:italic;font-variant:normal;font-weight:normal;font-stretch:normal;font-size:21.3333px;font-family:'Lobster 1.4';-inkscape-font-specification:'Lobster 1.4 Italic';white-space:pre;shape-inside:url(#rect114);display:inline;fill:#000000" /><text
       xml:space="preserve"
       transform="scale(0.26458333)"
       id="text796"
       style="font-style:italic;font-variant:normal;font-weight:normal;font-stretch:normal;font-size:13.3333px;font-family:'Lobster 1.4';-inkscape-font-specification:'Lobster 1.4 Italic';white-space:pre;shape-inside:url(#rect798);display:inline;fill:#000000" /><text
       xml:space="preserve"
       style="font-style:italic;font-variant:normal;font-weight:normal;font-stretch:normal;font-size:8.46667px;font-family:'Lobster 1.4';-inkscape-font-specification:'Lobster 1.4 Italic';fill:#f9f9f9;stroke-width:0.264583"
       x="3.0626252"
       y="8.6649904"
       id="text804"><tspan
         sodipodi:role="line"
         id="tspan802"
         style="font-size:8.46667px;fill:#f9f9f9;fill-opacity:1;stroke-width:0.264583"
         x="3.0626252"
         y="8.6649904">Ордена</tspan></text><text
       xml:space="preserve"
       transform="scale(0.26458333)"
       id="text1686"
       style="font-style:italic;font-variant:normal;font-weight:normal;font-stretch:normal;font-size:18.6667px;font-family:'Lobster 1.4';-inkscape-font-specification:'Lobster 1.4 Italic';white-space:pre;shape-inside:url(#rect1688);display:inline;fill:#333333;fill-opacity:1" /><text
       xml:space="preserve"
       style="font-style:italic;font-variant:normal;font-weight:normal;font-stretch:normal;font-size:8.46667px;font-family:'Lobster 1.4';-inkscape-font-specification:'Lobster 1.4 Italic';fill:#f9f9f9;fill-opacity:1;stroke-width:0.264583"
       x="43.698441"
       y="8.9637823"
       id="text1694"><tspan
         sodipodi:role="line"
         id="tspan1692"
         style="font-size:8.46667px;fill:#f9f9f9;stroke-width:0.264583"
         x="43.698441"
         y="8.9637823">Медали</tspan></text><g
       id="g4484"
       transform="matrix(0.01816671,0,0,0.01967417,31.615294,1.3874568)"
       style="fill:#ffd42a;image-rendering:optimizeSpeed"><g
         id="g4427"
         style="fill:#ffd42a">
	<g
   id="g4425"
   style="fill:#ffd42a">
		<g
   id="g4423"
   style="fill:#ffd42a">
			<path
   d="m 256,250.719 c -59.095,0 -107.172,48.048 -107.172,107.107 0,59.059 48.077,107.107 107.172,107.107 59.095,0 107.172,-48.048 107.172,-107.107 0,-59.059 -48.078,-107.107 -107.172,-107.107 z m 0,193.301 c -47.565,0 -86.26,-38.667 -86.26,-86.196 0,-47.529 38.696,-86.196 86.26,-86.196 47.564,0 86.26,38.667 86.26,86.196 0,47.53 -38.696,86.196 -86.26,86.196 z"
   id="path4419"
   style="fill:#ffd42a" />
			<path
   d="m 510.777,11.057 c -1.814,-3.415 -5.366,-5.768 -9.232,-5.768 h -176.6 c -3.474,0 -6.722,1.946 -8.667,4.826 L 256.056,99.445 195.715,10.051 C 193.77,7.176 190.526,5.287 187.053,5.287 H 10.456 c -3.869,0 -7.42,2.356 -9.235,5.772 -1.814,3.417 -1.593,7.665 0.572,10.87 l 153.112,226.567 c -29.437,27.22 -47.9,66.157 -47.9,109.302 0,82.104 66.839,148.915 148.995,148.915 82.156,0 148.995,-66.79 148.995,-148.895 0,-43.077 -18.406,-81.93 -47.763,-109.143 L 510.21,21.921 c 2.163,-3.204 2.382,-7.45 0.567,-10.864 z M 431.422,26.2 303.206,216.368 c -14.268,-4.775 -29.493,-7.55 -45.302,-7.75 L 380.962,26.2 Z m -100.919,0 h 25.23 L 231.301,210.762 c -10.83,1.813 -21.267,4.687 -31.177,8.709 z m -149,0 61.943,91.818 -12.591,18.543 L 156.289,26.2 Z m -50.459,0 87.202,129.153 -25.211,37.24 L 80.596,26.2 Z m -100.9,0 h 25.209 l 125.071,185.186 -12.617,18.582 z m 353.939,331.626 c 0,70.574 -57.458,127.99 -128.084,127.99 -70.626,0 -128.084,-57.416 -128.084,-127.99 0,-70.574 57.459,-127.99 128.085,-127.99 70.626,0 128.083,57.416 128.083,127.99 z M 340.882,235.304 c -5.719,-3.976 -11.728,-7.675 -17.99,-10.832 L 456.652,26.2 h 25.22 z"
   id="path4421"
   style="fill:#ffd42a" />
		</g>
	</g>
</g><g
         id="g4429"
         style="fill:#ffd42a">
</g><g
         id="g4431"
         style="fill:#ffd42a">
</g><g
         id="g4433"
         style="fill:#ffd42a">
</g><g
         id="g4435"
         style="fill:#ffd42a">
</g><g
         id="g4437"
         style="fill:#ffd42a">
</g><g
         id="g4439"
         style="fill:#ffd42a">
</g><g
         id="g4441"
         style="fill:#ffd42a">
</g><g
         id="g4443"
         style="fill:#ffd42a">
</g><g
         id="g4445"
         style="fill:#ffd42a">
</g><g
         id="g4447"
         style="fill:#ffd42a">
</g><g
         id="g4449"
         style="fill:#ffd42a">
</g><g
         id="g4451"
         style="fill:#ffd42a">
</g><g
         id="g4453"
         style="fill:#ffd42a">
</g><g
         id="g4455"
         style="fill:#ffd42a">
</g><g
         id="g4457"
         style="fill:#ffd42a">
</g></g></g></svg>
