<svg width="55" height="57" viewBox="0 0 55 57" fill="none" xmlns="http://www.w3.org/2000/svg">
<g opacity="0.5">
<rect x="0.557487" y="0.867058" width="53.885" height="54.885" rx="6.13236" stroke="black" stroke-width="1.11497"/>
<path d="M24.25 36.3096H19.797C19.5856 36.3096 19.3829 36.2256 19.2334 36.0761C19.084 35.9267 19 35.724 19 35.5126V31.0596C18.9996 30.9561 19.0197 30.8536 19.059 30.7578C19.0983 30.6621 19.1561 30.5751 19.2291 30.5017L31.1835 18.5473C31.2577 18.472 31.3461 18.4122 31.4436 18.3714C31.541 18.3306 31.6457 18.3096 31.7514 18.3096C31.857 18.3096 31.9617 18.3306 32.0592 18.3714C32.1566 18.4122 32.245 18.472 32.3192 18.5473L36.7622 22.9904C36.8375 23.0645 36.8973 23.1529 36.9382 23.2504C36.979 23.3479 37 23.4525 37 23.5582C37 23.6639 36.979 23.7685 36.9382 23.866C36.8973 23.9635 36.8375 24.0519 36.7622 24.126L24.8078 36.0804C24.7345 36.1534 24.6475 36.2112 24.5517 36.2506C24.456 36.2899 24.3535 36.3099 24.25 36.3096V36.3096Z" stroke="black" stroke-width="1.59392" stroke-linecap="round" stroke-linejoin="round"/>
<path d="M28.5645 21.167L34.1432 26.7457" stroke="black" stroke-width="1.59392" stroke-linecap="round" stroke-linejoin="round"/>
</g>
</svg>
